<?xml version="1.0" encoding="UTF-8"?>
<svg width="27.557mm" height="186.36mm" version="1.1" viewBox="0 0 27.557 186.36" xmlns="http://www.w3.org/2000/svg">
 <defs>
  <filter id="filter1596" x="-.19106" y="-.10083" width="1.3821" height="1.2017" color-interpolation-filters="sRGB">
   <feGaussianBlur stdDeviation="0.5570618"/>
  </filter>
  <filter id="filter1608" x="-.052108" y="-.027499" width="1.1042" height="1.055" color-interpolation-filters="sRGB">
   <feGaussianBlur stdDeviation="0.27092045"/>
  </filter>
 </defs>
 <g transform="translate(303.15 -41.289)">
  <g id="rocket">
   <rect x="-293.22" y="62.137" width="6.9736" height="109.99" ry="0" fill="#e4e4e4"/>
   <path d="m-289.73 65.476v99.042" fill="none" stroke="#cecece" stroke-width=".465"/>
   <path d="m-293.22 172.13-2e-5 -8.9008 3.4701 8.9008 3.5035-8.8772 2e-5 8.8772z"/>
   <path d="m-289.73 41.289c-1.8526-6e-5 -2.6794 2.1734-3.5233 3.6344-0.78314 1.3559-1.3272 2.9517-1.2878 4.517 0.0982 3.895-0.01 8.9146 0 13.23 3e-3 1.2167 1.3281 2.868 1.3281 2.868l3.483-0.062 3.4825 0.062s1.3251-1.6514 1.3281-2.868c0.01-4.3156-0.0982-9.3352 0-13.23 0.0395-1.5653-0.50464-3.1612-1.2878-4.517-0.84387-1.461-1.6702-3.6343-3.5228-3.6344z" fill="#dcdcdc"/>
   <g fill="#c2c2c2">
    <circle cx="-291.32" cy="50.313" r=".47838"/>
    <circle cx="-291.08" cy="58.156" r=".47838"/>
    <circle cx="-288.11" cy="61.936" r=".47838"/>
   </g>
   <rect x="-291.67" y="103.43" width="3.842" height="2.5725" fill="#fff"/>
   <path d="m-289.75 172.13-3.4697-19.388v11.526z" fill="#7a7a7a"/>
   <g fill="#1c1c1c">
    <path d="m-289.75 172.13c-0.0775-3e-3 -0.40484 8e-3 -0.67933 0.39628-0.58066 0.8216-0.53566 1.8816-0.53566 1.8816h2.464s0.045-1.06-0.53564-1.8816c-0.3137-0.44389-0.6964-0.39504-0.6964-0.39504s-6e-3 -7.9e-4 -0.017-2e-3z"/>
    <path d="m-287.29 172.13c-0.0775-3e-3 -0.40485 8e-3 -0.67933 0.39628-0.58065 0.8216-0.53565 1.8816-0.53565 1.8816h2.464s0.045-1.06-0.53564-1.8816c-0.31371-0.44389-0.6964-0.39504-0.6964-0.39504s-6e-3 -7.9e-4 -0.017-2e-3z"/>
    <path d="m-292.22 172.13c-0.0775-3e-3 -0.40485 8e-3 -0.67934 0.39628-0.58066 0.8216-0.53566 1.8816-0.53566 1.8816h2.464s0.045-1.06-0.53565-1.8816c-0.3137-0.44389-0.69641-0.39504-0.69641-0.39504s-6e-3 -7.9e-4 -0.017-2e-3z"/>
   </g>
   <path d="m-289.75 172.13 3.5038-19.355v11.493z" fill="#7a7a7a"/>
   <g fill="#005288">
    <path d="m-288.33 118.84c-0.0361-5.2e-4 -0.058 5.3e-4 -0.058 5.3e-4h-3.3471s-0.0386-5.3e-4 -0.0739 0.0307c-0.0354 0.0313-0.0336 0.0769-0.0336 0.0769l-4e-3 2.8481h0.88626v-1.0626s-5e-3 -0.0338 0.0275-0.067c0.032-0.0332 0.0717-0.0251 0.0717-0.0251l2.6412-7e-3s0.25163 0.0119 0.42836-0.15835c0.17673-0.17027 0.16104-0.36221 0.16104-0.36221v-0.76582s-4e-3 -0.22084-0.20493-0.37456c-0.15061-0.11529-0.38594-0.13252-0.4942-0.13392zm-2.5297 0.51493h2.0328s0.10922-3e-3 0.2033 0.0548c0.0941 0.0567 0.1 0.1087 0.1 0.1087v0.41299s8e-3 0.0703-0.0762 0.14414c-0.0846 0.0738-0.2012 0.0602-0.2012 0.0602h-2.0543l-0.10217-0.10219v-0.59908z"/>
    <path d="m-287.72 113.06h-3.1624s-0.0515-2e-3 -0.0665 0.0111c-0.0149 0.0128-0.0227 0.0404-0.0227 0.0404v0.50175s-3e-3 0.0236 0.022 0.0479c0.0243 0.0243 0.0548 0.0289 0.0548 0.0289h2.5754s0.29884-0.0191 0.50518 0.11797c0.20635 0.13709 0.23912 0.31176 0.23912 0.31176v0.85976s-0.0138 0.21189-0.18947 0.35737c-0.17569 0.14548-0.53659 0.16588-0.53659 0.16588h-2.8687s-0.29666 3e-3 -0.50733-0.11879c-0.21068-0.12164-0.21669-0.35274-0.21669-0.35274s3e-3 -0.0381 0.0345-0.0663c0.0322-0.0282 0.0598-0.0251 0.0598-0.0251h3.3554s0.0461-6e-3 0.0691-0.0321c0.0229-0.027 0.0223-0.0652 0.0223-0.0652v-0.50499s3e-3 -0.0277-0.0224-0.0486c-0.0246-0.021-0.069-0.0183-0.069-0.0183h-2.6132s-0.26868-0.0109-0.48181-0.13391c-0.21313-0.12307-0.20876-0.39847-0.20876-0.39847v-0.61452s-0.034-0.26339 0.21827-0.44442c0.25226-0.18103 0.58485-0.13966 0.58485-0.13966h2.4337s0.41622 0.0199 0.60775 0.12374c0.10153 0.055 0.18993 0.1761 0.21015 0.26553 0.0179 0.0793-0.027 0.13094-0.027 0.13094z"/>
    <path d="m-287.6 128.16h-1.0798l-0.3958-0.54637s-0.0264-0.0436-0.0711-0.0726c-0.0446-0.0289-0.10968-0.0307-0.10968-0.0307h-2.6114l0.44742-0.53347h1.7381s0.0433-3e-3 0.0605-0.0494c0.0171-0.0473 6e-3 -0.0657 6e-3 -0.0657l-0.80211-1.1111 0.55499-0.66684z"/>
    <path d="m-287.65 133.83h-3.1956l-0.096-0.0959v-1.705l0.0705-0.0706h3.2563s-0.0199-0.25351-0.19778-0.39425c-0.17797-0.14075-0.59812-0.12029-0.59812-0.12029h-2.6545s-0.37279-6e-3 -0.58047 0.13962c-0.20767 0.14618-0.20253 0.32072-0.20253 0.32072l-4e-3 1.9575s0.0114 0.21453 0.18899 0.37618c0.17757 0.16165 0.50796 0.14869 0.50796 0.14869h2.7577s0.45552-0.0116 0.60646-0.15375c0.15093-0.14208 0.14115-0.40293 0.14115-0.40293z"/>
    <path d="m-291.75 137.74v0.54232l4.0267 8e-3v-0.55075zm0 0.96382v1.9792l3.9668 8e-3v-0.50767h-2.9772l-0.0862-0.0946 8e-3 -0.77419 0.0689-0.0946h1.7038v-0.51651z"/>
    <path d="m-286.25 144.29c-0.36621 0.11598-0.72726 0.23914-1.0702 0.37931-3.3428 1.3663-4.9294 3.0226-4.9294 3.0226l0.0946 0.1633 1.2304 0.0171s1.5763-1.793 4.1925-2.9316c0.16471-0.0717 0.32152-0.13292 0.48213-0.19895zm-5.8219 0.61082-0.0744 0.14056 1.4888 1.0759 0.90332-0.49868-0.98081-0.71468zm3.282 1.4128-0.78496 0.60203 1.3084 0.93741 1.3322 0.0243 0.0672-0.14004z"/>
   </g>
  </g>
  <g id="fire" transform="translate(-41.419 19.697)">
   <path transform="matrix(1.0124 0 0 .76676 294.22 -29.236)" d="m-539.81 240.47s-2.0594 2.8503-2.1112 5.3128c-0.14291 6.786 5.9531 18.332 5.9531 18.332s6.6673-12.733 6.5201-17.103c-0.13524-4.0153-2.9667-6.5412-2.9667-6.5412z" fill="#fea" filter="url(#filter1608)"/>
   <path d="m-250.61 155.14s-1.1548 1.5984-1.1839 2.9793c-0.0801 3.8055 3.3384 10.28 3.3384 10.28s3.7389-7.1406 3.6563-9.5912c-0.0758-2.2517-1.6636-3.6682-1.6636-3.6682z" fill="#f4eed7" filter="url(#filter1596)"/>
  </g>
  <path d="m-288.5 174.41 8.4085 13.274-8.9769 30.333-11.812-31.183z" fill="none" stroke="#000" stroke-width=".26458px"/>
 </g>
</svg>
