<?xml version="1.0" encoding="UTF-8" standalone="no"?>
<!-- Created with Inkscape (http://www.inkscape.org/) -->

<svg
   xmlns:dc="http://purl.org/dc/elements/1.1/"
   xmlns:cc="http://creativecommons.org/ns#"
   xmlns:rdf="http://www.w3.org/1999/02/22-rdf-syntax-ns#"
   xmlns:svg="http://www.w3.org/2000/svg"
   xmlns="http://www.w3.org/2000/svg"
   xmlns:sodipodi="http://sodipodi.sourceforge.net/DTD/sodipodi-0.dtd"
   xmlns:inkscape="http://www.inkscape.org/namespaces/inkscape"
   width="983"
   height="560"
  
   version="1.1"
   id="svg3028"
   inkscape:version="0.92.4 (5da689c313, 2019-01-14)"
   sodipodi:docname="combined3.svg">
  <defs
     id="defs3022">
    <filter
       inkscape:collect="always"
       style="color-interpolation-filters:sRGB"
       id="filter1608"
       x="-0.05210812"
       width="1.1042162"
       y="-0.027499205"
       height="1.0549984">
      <feGaussianBlur
         inkscape:collect="always"
         stdDeviation="0.27092045"
         id="feGaussianBlur1610" />
    </filter>
    <filter
       inkscape:collect="always"
       style="color-interpolation-filters:sRGB"
       id="filter1596"
       x="-0.19106296"
       width="1.3821259"
       y="-0.10083046"
       height="1.2016609">
      <feGaussianBlur
         inkscape:collect="always"
         stdDeviation="0.5570618"
         id="feGaussianBlur1598" />
    </filter>
    <filter
       inkscape:collect="always"
       style="color-interpolation-filters:sRGB"
       id="filter2999"
       x="-0.068616122"
       width="1.1372322"
       y="-0.036192782"
       height="1.0723855">
      <feGaussianBlur
         inkscape:collect="always"
         stdDeviation="0.35667565"
         id="feGaussianBlur3001" />
    </filter>
    <filter
       inkscape:collect="always"
       style="color-interpolation-filters:sRGB"
       id="filter1596-3"
       x="-0.19106296"
       width="1.3821259"
       y="-0.10083046"
       height="1.2016609">
      <feGaussianBlur
         inkscape:collect="always"
         stdDeviation="0.5570618"
         id="feGaussianBlur1598-4" />
    </filter>
    <filter
       inkscape:collect="always"
       style="color-interpolation-filters:sRGB"
       id="filter12206"
       x="-0.014455773"
       width="1.0289115"
       y="-0.010064534"
       height="1.0201291">
      <feGaussianBlur
         inkscape:collect="always"
         stdDeviation="0.076074471"
         id="feGaussianBlur12208" />
    </filter>
  </defs>
  <sodipodi:namedview
     id="base"
     pagecolor="#ffffff"
     bordercolor="#666666"
     borderopacity="1.0"
     inkscape:pageopacity="0.0"
     inkscape:pageshadow="2"
     inkscape:zoom="3.959798"
     inkscape:cx="71.220607"
     inkscape:cy="65.123416"
     inkscape:document-units="mm"
     inkscape:current-layer="layer1"
     showgrid="false"
     fit-margin-top="0"
     fit-margin-left="0"
     fit-margin-right="0"
     fit-margin-bottom="0"
     inkscape:window-width="1920"
     inkscape:window-height="1017"
     inkscape:window-x="-8"
     inkscape:window-y="573"
     inkscape:window-maximized="1" />
  <metadata
     id="metadata3025">
    <rdf:RDF>
      <cc:Work
         rdf:about="">
        <dc:format>image/svg+xml</dc:format>
        <dc:type
           rdf:resource="http://purl.org/dc/dcmitype/StillImage" />
        <dc:title></dc:title>
      </cc:Work>
    </rdf:RDF>
  </metadata>
  <g
     inkscape:label="Layer 1"
     inkscape:groupmode="layer"
     id="layer1"
     transform="translate(223.17681,-67.617163)">
    <g
       id="test2"
       inkscape:label="#g12196"
       transform="translate(-17.240899,5.9462899)">
      <g
         id="test4"
         inkscape:label="#g12216">
        <rect
           style="opacity:0.00100002;fill:#ffe680;fill-opacity:1;stroke:none;stroke-width:0.46499997;stroke-linejoin:round;stroke-miterlimit:4;stroke-dasharray:none;stroke-opacity:1"
           id="rect12188"
           width="24.722431"
           height="32.874149"
           x="-205.93591"
           y="129.27142" />
        <g
           style="fill:#ffe5b7;fill-opacity:1"
           id="fire3"
           inkscape:label="#g3014"
           transform="matrix(0.62015807,0,0,0.95202902,-11.001819,19.075062)">
          <g
             style="opacity:1;fill:#ffd690;fill-opacity:1;filter:url(#filter12206)"
             transform="matrix(1.3764087,0,0,1.6265223,109.78785,-118.23902)"
             inkscape:label="#g2833"
             id="fire2">
            <g
               style="fill:#ffd690;fill-opacity:1"
               id="g3020">
              <path
                 transform="matrix(1.0123958,0,0,0.76675626,248.67481,-37.782497)"
                 sodipodi:nodetypes="csscsscc"
                 inkscape:connector-curvature="0"
                 id="path1535-2"
                 d="m -536.38293,240.46435 c 0,0 -5.48855,2.85739 -5.54041,5.31987 -0.0516,2.44857 1.96353,4.95358 2.19798,8.1415 0.1839,2.50056 3.75512,10.19035 3.75512,10.19035 0,0 3.94215,-6.09123 4.30146,-9.22654 0.39454,-3.44273 2.27732,-6.13481 2.21864,-7.87688 -0.13525,-4.01532 -5.0292,-6.5483 -5.0292,-6.5483 z"
                 style="fill:#ffd690;fill-opacity:1;stroke:none;stroke-width:0.26458332px;stroke-linecap:butt;stroke-linejoin:miter;stroke-opacity:1;filter:url(#filter2999)" />
              <path
                 sodipodi:nodetypes="cscscc"
                 inkscape:connector-curvature="0"
                 id="path1535-8-6"
                 d="m -296.15467,146.58935 c 0,0 -1.15483,1.59839 -1.18391,2.97929 -0.0801,3.80546 3.33837,10.28008 3.33837,10.28008 0,0 3.73886,-7.14059 3.65632,-9.59121 -0.0758,-2.25169 -1.66364,-3.66816 -1.66364,-3.66816 z"
                 style="fill:#ffd690;fill-opacity:1;stroke:none;stroke-width:0.14837231px;stroke-linecap:butt;stroke-linejoin:miter;stroke-opacity:1;filter:url(#filter1596-3)" />
            </g>
          </g>
        </g>
      </g>
    </g>
    <g
       id="test"
       inkscape:label="#g12141">
      <rect
         ry="0"
         y="138.50447"
         x="-215.25595"
         height="11.481027"
         width="8.4194193"
         id="rect12135"
         style="opacity:0.00100002;fill:#ffe680;fill-opacity:1;stroke:none;stroke-width:0.50219995;stroke-linejoin:round;stroke-miterlimit:4;stroke-dasharray:none;stroke-opacity:1" />
      <g
         style="opacity:1"
         transform="matrix(0.54015804,0,0,0.54015804,-52.302967,60.334287)"
         inkscape:label="#g2833"
         id="fire">
        <path
           style="fill:#ffe0aa;fill-opacity:1;stroke:none;stroke-width:0.26458332px;stroke-linecap:butt;stroke-linejoin:miter;stroke-opacity:1;filter:url(#filter1608)"
           d="m -539.81214,240.47142 c 0,0 -2.05935,2.85032 -2.1112,5.3128 -0.14291,6.78605 5.9531,18.33185 5.9531,18.33185 0,0 6.6673,-12.73339 6.5201,-17.10342 -0.13524,-4.01532 -2.96666,-6.54123 -2.96666,-6.54123 z"
           id="path1535"
           inkscape:connector-curvature="0"
           sodipodi:nodetypes="cscscc"
           transform="matrix(1.0123958,0,0,0.76675626,248.67481,-37.782497)" />
        <path
           style="fill:#f4eed7;stroke:none;stroke-width:0.14837231px;stroke-linecap:butt;stroke-linejoin:miter;stroke-opacity:1;filter:url(#filter1596)"
           d="m -296.15467,146.58935 c 0,0 -1.15483,1.59839 -1.18391,2.97929 -0.0801,3.80546 3.33837,10.28008 3.33837,10.28008 0,0 3.73886,-7.14059 3.65632,-9.59121 -0.0758,-2.25169 -1.66364,-3.66816 -1.66364,-3.66816 z"
           id="path1535-8"
           inkscape:connector-curvature="0"
           sodipodi:nodetypes="cscscc" />
      </g>
    </g>
    <g
       id="rocket"
       inkscape:label="#g7418">
      <rect
         style="fill:#e4e4e4;fill-opacity:1;stroke:none;stroke-width:75.35610962;stroke-linejoin:round;stroke-miterlimit:4;stroke-dasharray:none;stroke-opacity:1"
         id="rect852-6"
         width="3.7668273"
         height="59.412563"
         x="-213.01411"
         y="78.878326"
         ry="0" />
      <path
         style="fill:none;stroke:#cecece;stroke-width:0.2511735;stroke-linecap:butt;stroke-linejoin:miter;stroke-miterlimit:4;stroke-dasharray:none;stroke-opacity:1"
         d="M -211.12836,80.682338 V 134.18068"
         id="path4874"
         inkscape:connector-curvature="0" />
      <path
         style="fill:#000000;fill-opacity:1;stroke:none;stroke-width:0.14291681px;stroke-linecap:butt;stroke-linejoin:miter;stroke-opacity:1"
         d="m -213.0141,138.29089 -10e-6,-4.80784 1.87439,4.80786 1.89244,-4.7951 1e-5,4.79508 z"
         id="path1019"
         inkscape:connector-curvature="0"
         sodipodi:nodetypes="cccccc" />
      <path
         style="fill:#dcdcdc;fill-opacity:1;stroke:none;stroke-width:0.14291681px;stroke-linecap:butt;stroke-linejoin:miter;stroke-opacity:1"
         d="m -211.12837,67.617163 c -1.00069,-3.2e-5 -1.44732,1.173996 -1.90314,1.963156 -0.42302,0.732384 -0.71692,1.594406 -0.69559,2.439916 0.053,2.103921 -0.005,4.815303 0,7.146393 0.002,0.657188 0.71737,1.5492 0.71737,1.5492 l 1.88136,-0.03349 1.88109,0.03349 c 0,0 0.71576,-0.892012 0.71738,-1.5492 0.005,-2.33109 -0.053,-5.042472 0,-7.146393 0.0213,-0.84551 -0.27259,-1.707532 -0.6956,-2.439916 -0.45583,-0.78916 -0.90217,-1.963118 -1.90287,-1.963156 z"
         id="path828-7-4"
         inkscape:connector-curvature="0"
         sodipodi:nodetypes="zcccccccccz" />
      <circle
         style="fill:#c2c2c2;fill-opacity:1;stroke:none;stroke-width:0.05309832;stroke-linejoin:round;stroke-miterlimit:4;stroke-dasharray:none;stroke-opacity:1"
         id="path856-3"
         cx="-211.98685"
         cy="72.491829"
         r="0.25839996" />
      <circle
         style="fill:#c2c2c2;fill-opacity:1;stroke:none;stroke-width:0.05309832;stroke-linejoin:round;stroke-miterlimit:4;stroke-dasharray:none;stroke-opacity:1"
         id="path856-7-9"
         cx="-211.85925"
         cy="76.728302"
         r="0.25839996" />
      <circle
         style="fill:#c2c2c2;fill-opacity:1;stroke:none;stroke-width:0.05309832;stroke-linejoin:round;stroke-miterlimit:4;stroke-dasharray:none;stroke-opacity:1"
         id="path856-5-7"
         cx="-210.25143"
         cy="78.769958"
         r="0.25839996" />
      <rect
         style="fill:#ffffff;fill-opacity:1;stroke:none;stroke-width:1.08031619;stroke-linejoin:round;stroke-miterlimit:4;stroke-dasharray:none;stroke-opacity:1"
         id="rect879-7"
         width="2.0752871"
         height="1.38954"
         x="-212.17723"
         y="101.18279" />
      <path
         style="fill:#7a7a7a;fill-opacity:1;stroke:none;stroke-width:0.14291681px;stroke-linecap:butt;stroke-linejoin:miter;stroke-opacity:1"
         d="m -211.1399,138.2913 -1.87421,-10.47266 v 6.22587 z"
         id="path881-0"
         inkscape:connector-curvature="0"
         sodipodi:nodetypes="cccc" />
      <path
         style="fill:#1c1c1c;fill-opacity:1;stroke:none;stroke-width:0.02025433px;stroke-linecap:butt;stroke-linejoin:miter;stroke-opacity:1"
         d="m -211.1399,138.2913 c -0.0419,-0.002 -0.21868,0.004 -0.36695,0.21405 -0.31364,0.4438 -0.28934,1.01636 -0.28934,1.01636 h 0.66547 0.6655 c 0,0 0.0243,-0.57256 -0.28933,-1.01636 -0.16945,-0.23977 -0.37617,-0.21338 -0.37617,-0.21338 0,0 -0.003,-5.3e-4 -0.009,-0.001 z"
         id="path898-2-3"
         inkscape:connector-curvature="0" />
      <path
         style="fill:#1c1c1c;fill-opacity:1;stroke:none;stroke-width:0.02025433px;stroke-linecap:butt;stroke-linejoin:miter;stroke-opacity:1"
         d="m -209.80806,138.2913 c -0.0419,-0.002 -0.21868,0.004 -0.36695,0.21405 -0.31364,0.4438 -0.28933,1.01636 -0.28933,1.01636 h 0.66546 0.6655 c 0,0 0.0243,-0.57256 -0.28933,-1.01636 -0.16945,-0.23977 -0.37617,-0.21338 -0.37617,-0.21338 0,0 -0.003,-5.3e-4 -0.009,-0.001 z"
         id="path898-2-6-2"
         inkscape:connector-curvature="0" />
      <path
         style="fill:#1c1c1c;fill-opacity:1;stroke:none;stroke-width:0.02025433px;stroke-linecap:butt;stroke-linejoin:miter;stroke-opacity:1"
         d="m -212.47174,138.2913 c -0.0419,-0.002 -0.21868,0.004 -0.36695,0.21405 -0.31364,0.4438 -0.28934,1.01636 -0.28934,1.01636 h 0.66547 0.6655 c 0,0 0.0243,-0.57256 -0.28933,-1.01636 -0.16945,-0.23977 -0.37617,-0.21338 -0.37617,-0.21338 0,0 -0.003,-5.3e-4 -0.009,-0.001 z"
         id="path898-2-8-7"
         inkscape:connector-curvature="0" />
      <path
         style="fill:#7a7a7a;fill-opacity:1;stroke:none;stroke-width:0.14291681px;stroke-linecap:butt;stroke-linejoin:miter;stroke-opacity:1"
         d="m -211.1399,138.2913 1.89262,-10.45461 v 6.20782 z"
         id="path881-0-4"
         inkscape:connector-curvature="0"
         sodipodi:nodetypes="cccc" />
      <path
         style="fill:#005288;fill-opacity:1;stroke:none;stroke-width:0.00920203px;stroke-linecap:butt;stroke-linejoin:miter;stroke-opacity:1"
         d="m -210.36995,109.50879 c -0.0195,-2.6e-4 -0.0313,2.7e-4 -0.0313,2.7e-4 h -1.80796 c 0,0 -0.0208,-2.7e-4 -0.0399,0.0166 -0.0191,0.0169 -0.0182,0.0415 -0.0182,0.0415 l -0.002,1.53841 h 0.47872 v -0.574 c 0,0 -0.003,-0.0183 0.0149,-0.0362 0.0173,-0.0179 0.0387,-0.0136 0.0387,-0.0136 l 1.42667,-0.004 c 0,0 0.13592,0.006 0.23138,-0.0855 0.0955,-0.092 0.087,-0.19564 0.087,-0.19564 v -0.41367 c 0,0 -0.002,-0.11929 -0.11069,-0.20232 -0.0813,-0.0623 -0.20847,-0.0716 -0.26695,-0.0723 z m -1.36641,0.27814 h 1.09802 c 0,0 0.059,-0.002 0.10982,0.0296 0.0508,0.0306 0.054,0.0587 0.054,0.0587 v 0.22309 c 0,0 0.004,0.038 -0.0412,0.0779 -0.0457,0.0399 -0.10868,0.0325 -0.10868,0.0325 h -1.10965 l -0.0552,-0.0552 v -0.3236 z"
         id="path1045-1"
         inkscape:connector-curvature="0" />
      <path
         style="fill:#005288;fill-opacity:1;stroke:none;stroke-width:0.00920203px;stroke-linecap:butt;stroke-linejoin:miter;stroke-opacity:1"
         d="m -210.04257,106.38708 h -1.70819 c 0,0 -0.0278,-10e-4 -0.0359,0.006 -0.008,0.007 -0.0123,0.0218 -0.0123,0.0218 v 0.27103 c 0,0 -0.002,0.0127 0.0119,0.0259 0.0131,0.0131 0.0296,0.0156 0.0296,0.0156 h 1.39114 c 0,0 0.16142,-0.0103 0.27287,0.0637 0.11146,0.0741 0.12916,0.1684 0.12916,0.1684 v 0.4644 c 0,0 -0.007,0.11446 -0.10234,0.19304 -0.0949,0.0786 -0.28984,0.0896 -0.28984,0.0896 h -1.54955 c 0,0 -0.16025,0.002 -0.27404,-0.0642 -0.1138,-0.0657 -0.11705,-0.19054 -0.11705,-0.19054 0,0 0.002,-0.0206 0.0186,-0.0358 0.0174,-0.0152 0.0323,-0.0136 0.0323,-0.0136 h 1.81246 c 0,0 0.0249,-0.003 0.0373,-0.0173 0.0124,-0.0146 0.012,-0.0352 0.012,-0.0352 v -0.27277 c 0,0 0.002,-0.0149 -0.0121,-0.0263 -0.0133,-0.0113 -0.0373,-0.01 -0.0373,-0.01 h -1.41153 c 0,0 -0.14513,-0.006 -0.26025,-0.0723 -0.11513,-0.0665 -0.11277,-0.21524 -0.11277,-0.21524 v -0.33193 c 0,0 -0.0184,-0.14228 0.1179,-0.24006 0.13626,-0.0978 0.31592,-0.0754 0.31592,-0.0754 h 1.31457 c 0,0 0.22482,0.0107 0.32828,0.0668 0.0548,0.0297 0.10259,0.0951 0.11351,0.14343 0.01,0.0428 -0.0146,0.0707 -0.0146,0.0707 z"
         id="path1043-5"
         inkscape:connector-curvature="0"
         sodipodi:nodetypes="cczcczcczcczcczczcczcczcczcczccssc" />
      <path
         style="fill:#005288;fill-opacity:1;stroke:none;stroke-width:0.00920203px;stroke-linecap:butt;stroke-linejoin:miter;stroke-opacity:1"
         d="m -209.97804,114.53986 h -0.58329 l -0.21379,-0.29513 c 0,0 -0.0143,-0.0236 -0.0384,-0.0392 -0.0241,-0.0156 -0.0592,-0.0166 -0.0592,-0.0166 h -1.41059 l 0.24168,-0.28815 h 0.93885 c 0,0 0.0234,-0.002 0.0327,-0.0267 0.009,-0.0256 0.003,-0.0355 0.003,-0.0355 l -0.43327,-0.60015 0.29978,-0.36019 z"
         id="path1047-3"
         inkscape:connector-curvature="0"
         sodipodi:nodetypes="ccczcccczcccc" />
      <path
         style="fill:#005288;fill-opacity:1;stroke:none;stroke-width:0.00920203px;stroke-linecap:butt;stroke-linejoin:miter;stroke-opacity:1"
         d="m -210.00533,117.60525 h -1.72611 l -0.0519,-0.0518 v -0.92095 l 0.0381,-0.0381 h 1.75894 c 0,0 -0.0108,-0.13694 -0.10684,-0.21296 -0.0961,-0.076 -0.32308,-0.065 -0.32308,-0.065 h -1.43382 c 0,0 -0.20137,-0.003 -0.31355,0.0754 -0.11217,0.079 -0.1094,0.17324 -0.1094,0.17324 l -0.002,1.05736 c 0,0 0.006,0.11588 0.10209,0.20319 0.0959,0.0873 0.27438,0.0803 0.27438,0.0803 h 1.4896 c 0,0 0.24605,-0.006 0.32758,-0.0831 0.0815,-0.0767 0.0762,-0.21764 0.0762,-0.21764 z"
         id="path1051-0"
         inkscape:connector-curvature="0"
         sodipodi:nodetypes="cccccczcczcczcczc" />
      <path
         style="fill:#005288;fill-opacity:1;stroke:none;stroke-width:0.00920203px;stroke-linecap:butt;stroke-linejoin:miter;stroke-opacity:1"
         d="m -212.21823,119.71603 v 0.29294 l 2.17507,0.004 v -0.29749 z m 0,0.52061 v 1.06906 l 2.14267,0.004 v -0.27421 h -1.60814 l -0.0466,-0.0511 0.004,-0.41818 0.0372,-0.0511 h 0.92031 v -0.27901 z"
         id="path1117-9"
         inkscape:connector-curvature="0" />
      <path
         style="fill:#005288;fill-opacity:1;stroke:none;stroke-width:0.00920203px;stroke-linecap:butt;stroke-linejoin:miter;stroke-opacity:1"
         d="m -209.24714,123.25191 c -0.19781,0.0627 -0.39284,0.12918 -0.57809,0.20489 -1.80567,0.73801 -2.66267,1.63266 -2.66267,1.63266 l 0.0511,0.0882 0.66462,0.009 c 0,0 0.85147,-0.96848 2.26462,-1.58353 0.089,-0.0387 0.17367,-0.0718 0.26042,-0.10747 z m -3.14473,0.32994 -0.0402,0.0759 0.80418,0.58116 0.48793,-0.26937 -0.52979,-0.38604 z m 1.77278,0.76315 -0.424,0.32519 0.70676,0.50635 0.71962,0.0131 0.0363,-0.0756 z"
         id="path1121-8"
         inkscape:connector-curvature="0" />
    </g>
  </g>
</svg>
