<?xml version="1.0" encoding="UTF-8" standalone="no"?>
<!-- Created with Inkscape (http://www.inkscape.org/) -->

<svg
   xmlns:dc="http://purl.org/dc/elements/1.1/"
   xmlns:cc="http://creativecommons.org/ns#"
   xmlns:rdf="http://www.w3.org/1999/02/22-rdf-syntax-ns#"
   xmlns:svg="http://www.w3.org/2000/svg"
   xmlns="http://www.w3.org/2000/svg"
   xmlns:sodipodi="http://sodipodi.sourceforge.net/DTD/sodipodi-0.dtd"
   xmlns:inkscape="http://www.inkscape.org/namespaces/inkscape"
   width="18.452171mm"
   height="100.44424mm"
   viewBox="0 0 18.452171 100.44424"
   version="1.1"
   id="svg2199"
   inkscape:version="0.92.4 (5da689c313, 2019-01-14)"
   sodipodi:docname="combined.svg">
  <defs
     id="defs2193">
    <filter
       inkscape:collect="always"
       style="color-interpolation-filters:sRGB"
       id="filter1596"
       x="-0.19106296"
       width="1.3821259"
       y="-0.10083046"
       height="1.2016609">
      <feGaussianBlur
         inkscape:collect="always"
         stdDeviation="0.5570618"
         id="feGaussianBlur1598" />
    </filter>
    <filter
       inkscape:collect="always"
       style="color-interpolation-filters:sRGB"
       id="filter1608"
       x="-0.05210812"
       width="1.1042162"
       y="-0.027499205"
       height="1.0549984">
      <feGaussianBlur
         inkscape:collect="always"
         stdDeviation="0.27092045"
         id="feGaussianBlur1610" />
    </filter>
    <filter
       inkscape:collect="always"
       style="color-interpolation-filters:sRGB"
       id="filter1596-3"
       x="-0.19106296"
       width="1.3821259"
       y="-0.10083046"
       height="1.2016609">
      <feGaussianBlur
         inkscape:collect="always"
         stdDeviation="0.5570618"
         id="feGaussianBlur1598-4" />
    </filter>
    <filter
       inkscape:collect="always"
       style="color-interpolation-filters:sRGB"
       id="filter2999"
       x="-0.068616122"
       width="1.1372322"
       y="-0.036192782"
       height="1.0723855">
      <feGaussianBlur
         inkscape:collect="always"
         stdDeviation="0.35667565"
         id="feGaussianBlur3001" />
    </filter>
    <filter
       inkscape:collect="always"
       style="color-interpolation-filters:sRGB"
       id="filter3007"
       x="-0.030714801"
       width="1.0614296"
       y="-0.021384547"
       height="1.0427691">
      <feGaussianBlur
         inkscape:collect="always"
         stdDeviation="0.16163869"
         id="feGaussianBlur3009" />
    </filter>
  </defs>
  <sodipodi:namedview
     id="base"
     pagecolor="#ffffff"
     bordercolor="#666666"
     borderopacity="1.0"
     inkscape:pageopacity="0.0"
     inkscape:pageshadow="2"
     inkscape:zoom="1.4"
     inkscape:cx="106.32126"
     inkscape:cy="173.22503"
     inkscape:document-units="mm"
     inkscape:current-layer="layer1"
     showgrid="false"
     inkscape:window-width="1920"
     inkscape:window-height="1017"
     inkscape:window-x="-8"
     inkscape:window-y="573"
     inkscape:window-maximized="1"
     fit-margin-top="0"
     fit-margin-left="0"
     fit-margin-right="0"
     fit-margin-bottom="0" />
  <metadata
     id="metadata2196">
    <rdf:RDF>
      <cc:Work
         rdf:about="">
        <dc:format>image/svg+xml</dc:format>
        <dc:type
           rdf:resource="http://purl.org/dc/dcmitype/StillImage" />
        <dc:title></dc:title>
      </cc:Work>
    </rdf:RDF>
  </metadata>
  <g
     inkscape:label="Layer 1"
     inkscape:groupmode="layer"
     id="layer1"
     transform="translate(303.62342,-48.372419)">
    <g
       id="fire3"
       inkscape:label="#g3014"
       transform="matrix(1,0,0,0.94981095,0,6.0323147)">
      <g
         style="opacity:0.828;filter:url(#filter3007)"
         transform="matrix(1.3764087,0,0,1.6265223,109.78785,-118.23902)"
         inkscape:label="#g2833"
         id="fire2">
        <g
           id="g3020">
          <path
             transform="matrix(1.0123958,0,0,0.76675626,248.67481,-37.782497)"
             sodipodi:nodetypes="csscsscc"
             inkscape:connector-curvature="0"
             id="path1535-2"
             d="m -536.38293,240.46435 c 0,0 -5.48855,2.85739 -5.54041,5.31987 -0.0516,2.44857 1.96353,4.95358 2.19798,8.1415 0.1839,2.50056 3.75512,10.19035 3.75512,10.19035 0,0 3.94215,-6.09123 4.30146,-9.22654 0.39454,-3.44273 2.27732,-6.13481 2.21864,-7.87688 -0.13525,-4.01532 -5.0292,-6.5483 -5.0292,-6.5483 z"
             style="fill:#ffdda2;fill-opacity:1;stroke:none;stroke-width:0.26458332px;stroke-linecap:butt;stroke-linejoin:miter;stroke-opacity:1;filter:url(#filter2999)" />
          <path
             sodipodi:nodetypes="cscscc"
             inkscape:connector-curvature="0"
             id="path1535-8-6"
             d="m -296.15467,146.58935 c 0,0 -1.15483,1.59839 -1.18391,2.97929 -0.0801,3.80546 3.33837,10.28008 3.33837,10.28008 0,0 3.73886,-7.14059 3.65632,-9.59121 -0.0758,-2.25169 -1.66364,-3.66816 -1.66364,-3.66816 z"
             style="fill:#f4eed7;stroke:none;stroke-width:0.14837231px;stroke-linecap:butt;stroke-linejoin:miter;stroke-opacity:1;filter:url(#filter1596-3)" />
        </g>
      </g>
    </g>
    <g
       id="rocket"
       inkscape:label="#g2854"
       transform="matrix(0.54015803,0,0,0.54015803,-135.03362,41.089543)">
      <rect
         ry="0"
         y="34.330772"
         x="-297.52615"
         height="109.99107"
         width="6.9735651"
         id="rect852-6"
         style="fill:#e4e4e4;fill-opacity:1;stroke:none;stroke-width:139.50752258;stroke-linejoin:round;stroke-miterlimit:4;stroke-dasharray:none;stroke-opacity:1" />
      <path
         inkscape:connector-curvature="0"
         id="path4874"
         d="M -294.03505,37.670552 V 136.71257"
         style="fill:none;stroke:#cecece;stroke-width:0.465;stroke-linecap:butt;stroke-linejoin:miter;stroke-miterlimit:4;stroke-dasharray:none;stroke-opacity:1" />
      <path
         sodipodi:nodetypes="cccccc"
         inkscape:connector-curvature="0"
         id="path1019"
         d="m -297.52614,144.32184 -2e-5,-8.9008 3.47008,8.90083 3.50349,-8.87721 2e-5,8.87718 z"
         style="fill:#000000;fill-opacity:1;stroke:none;stroke-width:0.26458332px;stroke-linecap:butt;stroke-linejoin:miter;stroke-opacity:1" />
      <path
         sodipodi:nodetypes="zcccccccccz"
         inkscape:connector-curvature="0"
         id="path828-7-4"
         d="m -294.03506,13.482862 c -1.85259,-6e-5 -2.67944,2.17343 -3.5233,3.63441 -0.78314,1.35587 -1.32725,2.95174 -1.28776,4.51704 0.0982,3.89501 -0.01,8.91462 0,13.23019 0.003,1.21666 1.32807,2.86805 1.32807,2.86805 l 3.48299,-0.062 3.48247,0.062 c 0,0 1.3251,-1.65139 1.3281,-2.86805 0.01,-4.31557 -0.0982,-9.33518 0,-13.23019 0.0395,-1.5653 -0.50464,-3.16117 -1.28778,-4.51704 -0.84387,-1.46098 -1.67019,-3.63434 -3.52279,-3.63441 z"
         style="fill:#dcdcdc;fill-opacity:1;stroke:none;stroke-width:0.26458332px;stroke-linecap:butt;stroke-linejoin:miter;stroke-opacity:1" />
      <circle
         r="0.47837842"
         cy="22.50738"
         cx="-295.62436"
         id="path856-3"
         style="fill:#c2c2c2;fill-opacity:1;stroke:none;stroke-width:0.09830145;stroke-linejoin:round;stroke-miterlimit:4;stroke-dasharray:none;stroke-opacity:1" />
      <circle
         r="0.47837842"
         cy="30.350405"
         cx="-295.38815"
         id="path856-7-9"
         style="fill:#c2c2c2;fill-opacity:1;stroke:none;stroke-width:0.09830145;stroke-linejoin:round;stroke-miterlimit:4;stroke-dasharray:none;stroke-opacity:1" />
      <circle
         r="0.47837842"
         cy="34.13015"
         cx="-292.41159"
         id="path856-5-7"
         style="fill:#c2c2c2;fill-opacity:1;stroke:none;stroke-width:0.09830145;stroke-linejoin:round;stroke-miterlimit:4;stroke-dasharray:none;stroke-opacity:1" />
      <rect
         y="75.623253"
         x="-295.97684"
         height="2.5724692"
         width="3.8419998"
         id="rect879-7"
         style="fill:#ffffff;fill-opacity:1;stroke:none;stroke-width:2;stroke-linejoin:round;stroke-miterlimit:4;stroke-dasharray:none;stroke-opacity:1" />
      <path
         sodipodi:nodetypes="cccc"
         inkscape:connector-curvature="0"
         id="path881-0"
         d="m -294.05641,144.3226 -3.46974,-19.38814 v 11.52601 z"
         style="fill:#7a7a7a;fill-opacity:1;stroke:none;stroke-width:0.26458332px;stroke-linecap:butt;stroke-linejoin:miter;stroke-opacity:1" />
      <path
         inkscape:connector-curvature="0"
         id="path898-2-3"
         d="m -294.05641,144.3226 c -0.0775,-0.003 -0.40484,0.008 -0.67933,0.39628 -0.58066,0.8216 -0.53566,1.88159 -0.53566,1.88159 h 1.23199 1.23204 c 0,0 0.045,-1.05999 -0.53564,-1.88159 -0.3137,-0.44389 -0.6964,-0.39504 -0.6964,-0.39504 0,0 -0.006,-7.9e-4 -0.017,-0.002 z"
         style="fill:#1c1c1c;fill-opacity:1;stroke:none;stroke-width:0.03749705px;stroke-linecap:butt;stroke-linejoin:miter;stroke-opacity:1" />
      <path
         inkscape:connector-curvature="0"
         id="path898-2-6-2"
         d="m -291.59076,144.3226 c -0.0775,-0.003 -0.40485,0.008 -0.67933,0.39628 -0.58065,0.8216 -0.53565,1.88159 -0.53565,1.88159 h 1.23198 1.23204 c 0,0 0.045,-1.05999 -0.53564,-1.88159 -0.31371,-0.44389 -0.6964,-0.39504 -0.6964,-0.39504 0,0 -0.006,-7.9e-4 -0.017,-0.002 z"
         style="fill:#1c1c1c;fill-opacity:1;stroke:none;stroke-width:0.03749705px;stroke-linecap:butt;stroke-linejoin:miter;stroke-opacity:1" />
      <path
         inkscape:connector-curvature="0"
         id="path898-2-8-7"
         d="m -296.52205,144.3226 c -0.0775,-0.003 -0.40485,0.008 -0.67934,0.39628 -0.58066,0.8216 -0.53566,1.88159 -0.53566,1.88159 h 1.23198 1.23206 c 0,0 0.045,-1.05999 -0.53565,-1.88159 -0.3137,-0.44389 -0.69641,-0.39504 -0.69641,-0.39504 0,0 -0.006,-7.9e-4 -0.017,-0.002 z"
         style="fill:#1c1c1c;fill-opacity:1;stroke:none;stroke-width:0.03749705px;stroke-linecap:butt;stroke-linejoin:miter;stroke-opacity:1" />
      <path
         sodipodi:nodetypes="cccc"
         inkscape:connector-curvature="0"
         id="path881-0-4"
         d="m -294.05641,144.3226 3.50382,-19.35473 v 11.4926 z"
         style="fill:#7a7a7a;fill-opacity:1;stroke:none;stroke-width:0.26458332px;stroke-linecap:butt;stroke-linejoin:miter;stroke-opacity:1" />
      <path
         inkscape:connector-curvature="0"
         id="path1045-1"
         d="m -292.63099,91.037253 c -0.0361,-5.29e-4 -0.058,5.3e-4 -0.058,5.3e-4 h -3.3471 c 0,0 -0.0386,-5.3e-4 -0.0739,0.0307 -0.0354,0.0313 -0.0336,0.0769 -0.0336,0.0769 l -0.004,2.848081 h 0.88626 v -1.062641 c 0,0 -0.005,-0.0338 0.0275,-0.067 0.032,-0.0332 0.0717,-0.02511 0.0717,-0.02511 l 2.64121,-0.007 c 0,0 0.25163,0.01191 0.42836,-0.158359 0.17673,-0.170262 0.16104,-0.362201 0.16104,-0.362201 v -0.765829 c 0,0 -0.004,-0.220839 -0.20493,-0.374552 -0.15061,-0.115299 -0.38594,-0.132529 -0.4942,-0.133929 z m -2.52966,0.51493 h 2.03279 c 0,0 0.10922,-0.003 0.2033,0.0548 0.0941,0.0567 0.1,0.108699 0.1,0.108699 v 0.412991 c 0,0 0.008,0.0703 -0.0762,0.14414 -0.0846,0.0738 -0.2012,0.0602 -0.2012,0.0602 h -2.05429 l -0.10217,-0.10219 v -0.59908 z"
         style="fill:#005288;fill-opacity:1;stroke:none;stroke-width:0.01703582px;stroke-linecap:butt;stroke-linejoin:miter;stroke-opacity:1" />
      <path
         sodipodi:nodetypes="cczcczcczcczcczczcczcczcczcczccssc"
         inkscape:connector-curvature="0"
         id="path1043-5"
         d="m -292.02491,85.258002 h -3.16239 c 0,0 -0.0515,-0.0021 -0.0665,0.01111 -0.0149,0.01281 -0.0227,0.0404 -0.0227,0.0404 v 0.50175 c 0,0 -0.003,0.0236 0.022,0.0479 0.0243,0.02429 0.0548,0.0289 0.0548,0.0289 h 2.57542 c 0,0 0.29884,-0.0191 0.50518,0.117962 0.20635,0.137099 0.23912,0.311769 0.23912,0.311769 v 0.859751 c 0,0 -0.0138,0.211899 -0.18947,0.35737 -0.17569,0.145489 -0.53659,0.16588 -0.53659,0.16588 h -2.8687 c 0,0 -0.29666,0.003 -0.50733,-0.118782 -0.21068,-0.121647 -0.21669,-0.352748 -0.21669,-0.352748 0,0 0.003,-0.0381 0.0345,-0.0663 0.0322,-0.0282 0.0598,-0.02511 0.0598,-0.02511 h 3.35542 c 0,0 0.0461,-0.006 0.0691,-0.0321 0.0229,-0.027 0.0223,-0.0652 0.0223,-0.0652 v -0.504989 c 0,0 0.003,-0.0277 -0.0224,-0.0486 -0.0246,-0.02101 -0.069,-0.01831 -0.069,-0.01831 h -2.61317 c 0,0 -0.26868,-0.0109 -0.48181,-0.133911 -0.21313,-0.123072 -0.20876,-0.398472 -0.20876,-0.398472 v -0.614511 c 0,0 -0.034,-0.263398 0.21827,-0.444428 0.25226,-0.181031 0.58485,-0.139661 0.58485,-0.139661 h 2.43368 c 0,0 0.41622,0.0199 0.60775,0.123741 0.10153,0.055 0.18993,0.176099 0.21015,0.265538 0.0179,0.0793 -0.027,0.130932 -0.027,0.130932 z"
         style="fill:#005288;fill-opacity:1;stroke:none;stroke-width:0.01703582px;stroke-linecap:butt;stroke-linejoin:miter;stroke-opacity:1" />
      <path
         sodipodi:nodetypes="ccczcccczcccc"
         inkscape:connector-curvature="0"
         id="path1047-3"
         d="m -291.90544,100.35132 h -1.07985 l -0.3958,-0.546368 c 0,0 -0.0264,-0.0436 -0.0711,-0.0726 -0.0446,-0.0289 -0.10968,-0.0307 -0.10968,-0.0307 h -2.61143 l 0.44742,-0.53347 h 1.73809 c 0,0 0.0433,-0.003 0.0605,-0.0494 0.0171,-0.0473 0.006,-0.0657 0.006,-0.0657 l -0.80211,-1.11107 0.55499,-0.66684 z"
         style="fill:#005288;fill-opacity:1;stroke:none;stroke-width:0.01703582px;stroke-linecap:butt;stroke-linejoin:miter;stroke-opacity:1" />
      <path
         sodipodi:nodetypes="cccccczcczcczcczc"
         inkscape:connector-curvature="0"
         id="path1051-0"
         d="m -291.95597,106.02631 h -3.19556 l -0.096,-0.0959 v -1.70497 l 0.0705,-0.0706 h 3.25634 c 0,0 -0.0199,-0.25351 -0.19778,-0.39425 -0.17797,-0.14075 -0.59812,-0.12029 -0.59812,-0.12029 h -2.65446 c 0,0 -0.37279,-0.006 -0.58047,0.13962 -0.20767,0.14618 -0.20253,0.32072 -0.20253,0.32072 l -0.004,1.9575 c 0,0 0.0114,0.21453 0.18899,0.37618 0.17757,0.16165 0.50796,0.14869 0.50796,0.14869 h 2.75772 c 0,0 0.45552,-0.0116 0.60646,-0.15375 0.15093,-0.14208 0.14115,-0.40293 0.14115,-0.40293 z"
         style="fill:#005288;fill-opacity:1;stroke:none;stroke-width:0.01703582px;stroke-linecap:butt;stroke-linejoin:miter;stroke-opacity:1" />
      <path
         inkscape:connector-curvature="0"
         id="path1117-9"
         d="m -296.05274,109.93402 v 0.54231 l 4.02673,0.008 v -0.55074 z m 0,0.96381 v 1.97916 l 3.96676,0.008 v -0.50768 h -2.97718 l -0.0862,-0.0946 0.008,-0.77418 0.0689,-0.0946 h 1.70377 v -0.51652 z"
         style="fill:#005288;fill-opacity:1;stroke:none;stroke-width:0.01703582px;stroke-linecap:butt;stroke-linejoin:miter;stroke-opacity:1" />
      <path
         inkscape:connector-curvature="0"
         id="path1121-8"
         d="m -290.55233,116.48003 c -0.36621,0.11598 -0.72726,0.23914 -1.07022,0.37931 -3.34285,1.36628 -4.92942,3.02255 -4.92942,3.02255 l 0.0946,0.1633 1.23042,0.0171 c 0,0 1.57633,-1.79295 4.1925,-2.9316 0.16471,-0.0717 0.32153,-0.13292 0.48213,-0.19895 z m -5.82187,0.61082 -0.0744,0.14056 1.48878,1.0759 0.90332,-0.49868 -0.98081,-0.71468 z m 3.28197,1.41283 -0.78496,0.60203 1.30844,0.93741 1.33223,0.0243 0.0672,-0.14004 z"
         style="fill:#005288;fill-opacity:1;stroke:none;stroke-width:0.01703582px;stroke-linecap:butt;stroke-linejoin:miter;stroke-opacity:1" />
    </g>
    <g
       id="fire"
       inkscape:label="#g2833"
       transform="matrix(0.54015803,0,0,0.54015803,-135.03362,41.089543)"
       style="opacity:1">
      <path
         transform="matrix(1.0123958,0,0,0.76675626,248.67481,-37.782497)"
         sodipodi:nodetypes="cscscc"
         inkscape:connector-curvature="0"
         id="path1535"
         d="m -539.81214,240.47142 c 0,0 -2.05935,2.85032 -2.1112,5.3128 -0.14291,6.78605 5.9531,18.33185 5.9531,18.33185 0,0 6.6673,-12.73339 6.5201,-17.10342 -0.13524,-4.01532 -2.96666,-6.54123 -2.96666,-6.54123 z"
         style="fill:#ffe0aa;fill-opacity:1;stroke:none;stroke-width:0.26458332px;stroke-linecap:butt;stroke-linejoin:miter;stroke-opacity:1;filter:url(#filter1608)" />
      <path
         sodipodi:nodetypes="cscscc"
         inkscape:connector-curvature="0"
         id="path1535-8"
         d="m -296.15467,146.58935 c 0,0 -1.15483,1.59839 -1.18391,2.97929 -0.0801,3.80546 3.33837,10.28008 3.33837,10.28008 0,0 3.73886,-7.14059 3.65632,-9.59121 -0.0758,-2.25169 -1.66364,-3.66816 -1.66364,-3.66816 z"
         style="fill:#f4eed7;stroke:none;stroke-width:0.14837231px;stroke-linecap:butt;stroke-linejoin:miter;stroke-opacity:1;filter:url(#filter1596)" />
    </g>
  </g>
</svg>
